<mxfile host="app.diagrams.net" modified="2022-01-03T06:03:31.011Z" agent="5.0 (Macintosh; Intel Mac OS X 10_15_7) AppleWebKit/537.36 (KHTML, like Gecko) Chrome/96.0.4664.110 Safari/537.36" etag="Kt4o80ot8RbiPzWWN6bS" version="16.1.2" type="github">
  <diagram id="LkRejrbTIakofH6C8lB7" name="Page-1">
    <mxGraphModel dx="946" dy="1783" grid="1" gridSize="10" guides="1" tooltips="1" connect="1" arrows="1" fold="1" page="1" pageScale="1" pageWidth="827" pageHeight="1169" math="0" shadow="0">
      <root>
        <mxCell id="0" />
        <mxCell id="1" parent="0" />
        <mxCell id="uTGLhY5-cAucIdM76ZCT-50" style="edgeStyle=orthogonalEdgeStyle;rounded=0;orthogonalLoop=1;jettySize=auto;html=1;exitX=0.5;exitY=1;exitDx=0;exitDy=0;entryX=0;entryY=0.5;entryDx=0;entryDy=0;" parent="1" source="uTGLhY5-cAucIdM76ZCT-1" target="uTGLhY5-cAucIdM76ZCT-14" edge="1">
          <mxGeometry relative="1" as="geometry" />
        </mxCell>
        <mxCell id="uTGLhY5-cAucIdM76ZCT-1" value="通信效率" style="rounded=0;whiteSpace=wrap;html=1;" parent="1" vertex="1">
          <mxGeometry x="320" y="400" width="120" height="60" as="geometry" />
        </mxCell>
        <mxCell id="uTGLhY5-cAucIdM76ZCT-54" style="edgeStyle=orthogonalEdgeStyle;rounded=0;orthogonalLoop=1;jettySize=auto;html=1;exitX=1;exitY=0.5;exitDx=0;exitDy=0;entryX=0;entryY=0.5;entryDx=0;entryDy=0;" parent="1" source="uTGLhY5-cAucIdM76ZCT-2" target="uTGLhY5-cAucIdM76ZCT-10" edge="1">
          <mxGeometry relative="1" as="geometry" />
        </mxCell>
        <mxCell id="uTGLhY5-cAucIdM76ZCT-55" style="edgeStyle=orthogonalEdgeStyle;rounded=0;orthogonalLoop=1;jettySize=auto;html=1;exitX=0.5;exitY=1;exitDx=0;exitDy=0;entryX=0;entryY=0.5;entryDx=0;entryDy=0;" parent="1" source="uTGLhY5-cAucIdM76ZCT-2" target="uTGLhY5-cAucIdM76ZCT-11" edge="1">
          <mxGeometry relative="1" as="geometry" />
        </mxCell>
        <mxCell id="uTGLhY5-cAucIdM76ZCT-2" value="性能降级" style="rounded=0;whiteSpace=wrap;html=1;" parent="1" vertex="1">
          <mxGeometry x="320" y="240" width="120" height="60" as="geometry" />
        </mxCell>
        <mxCell id="uTGLhY5-cAucIdM76ZCT-27" style="edgeStyle=orthogonalEdgeStyle;rounded=0;orthogonalLoop=1;jettySize=auto;html=1;exitX=1;exitY=0.5;exitDx=0;exitDy=0;entryX=0;entryY=0.5;entryDx=0;entryDy=0;" parent="1" source="uTGLhY5-cAucIdM76ZCT-3" target="uTGLhY5-cAucIdM76ZCT-2" edge="1">
          <mxGeometry relative="1" as="geometry" />
        </mxCell>
        <mxCell id="uTGLhY5-cAucIdM76ZCT-28" style="edgeStyle=orthogonalEdgeStyle;rounded=0;orthogonalLoop=1;jettySize=auto;html=1;entryX=0;entryY=0.5;entryDx=0;entryDy=0;" parent="1" source="uTGLhY5-cAucIdM76ZCT-3" target="uTGLhY5-cAucIdM76ZCT-4" edge="1">
          <mxGeometry relative="1" as="geometry">
            <Array as="points">
              <mxPoint x="180" y="100" />
            </Array>
          </mxGeometry>
        </mxCell>
        <mxCell id="uTGLhY5-cAucIdM76ZCT-29" style="edgeStyle=orthogonalEdgeStyle;rounded=0;orthogonalLoop=1;jettySize=auto;html=1;exitX=0.5;exitY=1;exitDx=0;exitDy=0;entryX=0;entryY=0.5;entryDx=0;entryDy=0;" parent="1" source="uTGLhY5-cAucIdM76ZCT-3" target="uTGLhY5-cAucIdM76ZCT-1" edge="1">
          <mxGeometry relative="1" as="geometry" />
        </mxCell>
        <mxCell id="uTGLhY5-cAucIdM76ZCT-3" value="联邦学习挑战" style="rounded=0;whiteSpace=wrap;html=1;" parent="1" vertex="1">
          <mxGeometry x="120" y="240" width="120" height="60" as="geometry" />
        </mxCell>
        <mxCell id="uTGLhY5-cAucIdM76ZCT-30" style="edgeStyle=orthogonalEdgeStyle;rounded=0;orthogonalLoop=1;jettySize=auto;html=1;entryX=0;entryY=0.5;entryDx=0;entryDy=0;" parent="1" source="uTGLhY5-cAucIdM76ZCT-4" target="uTGLhY5-cAucIdM76ZCT-5" edge="1">
          <mxGeometry relative="1" as="geometry">
            <Array as="points">
              <mxPoint x="380" y="10" />
            </Array>
          </mxGeometry>
        </mxCell>
        <mxCell id="uTGLhY5-cAucIdM76ZCT-31" style="edgeStyle=orthogonalEdgeStyle;rounded=0;orthogonalLoop=1;jettySize=auto;html=1;exitX=1;exitY=0.5;exitDx=0;exitDy=0;entryX=0;entryY=0.5;entryDx=0;entryDy=0;" parent="1" source="uTGLhY5-cAucIdM76ZCT-4" target="uTGLhY5-cAucIdM76ZCT-6" edge="1">
          <mxGeometry relative="1" as="geometry" />
        </mxCell>
        <mxCell id="uTGLhY5-cAucIdM76ZCT-32" style="edgeStyle=orthogonalEdgeStyle;rounded=0;orthogonalLoop=1;jettySize=auto;html=1;exitX=0.5;exitY=1;exitDx=0;exitDy=0;entryX=0;entryY=0.5;entryDx=0;entryDy=0;" parent="1" source="uTGLhY5-cAucIdM76ZCT-4" target="uTGLhY5-cAucIdM76ZCT-8" edge="1">
          <mxGeometry relative="1" as="geometry" />
        </mxCell>
        <mxCell id="uTGLhY5-cAucIdM76ZCT-4" value="隐私与安全" style="rounded=0;whiteSpace=wrap;html=1;" parent="1" vertex="1">
          <mxGeometry x="320" y="70" width="120" height="60" as="geometry" />
        </mxCell>
        <mxCell id="uTGLhY5-cAucIdM76ZCT-33" style="edgeStyle=orthogonalEdgeStyle;rounded=0;orthogonalLoop=1;jettySize=auto;html=1;exitX=0.5;exitY=0;exitDx=0;exitDy=0;entryX=0;entryY=0.5;entryDx=0;entryDy=0;" parent="1" source="uTGLhY5-cAucIdM76ZCT-5" target="uTGLhY5-cAucIdM76ZCT-16" edge="1">
          <mxGeometry relative="1" as="geometry" />
        </mxCell>
        <mxCell id="uTGLhY5-cAucIdM76ZCT-34" style="edgeStyle=orthogonalEdgeStyle;rounded=0;orthogonalLoop=1;jettySize=auto;html=1;exitX=1;exitY=0.5;exitDx=0;exitDy=0;entryX=0;entryY=0.5;entryDx=0;entryDy=0;" parent="1" source="uTGLhY5-cAucIdM76ZCT-5" target="uTGLhY5-cAucIdM76ZCT-17" edge="1">
          <mxGeometry relative="1" as="geometry" />
        </mxCell>
        <mxCell id="uTGLhY5-cAucIdM76ZCT-5" value="隐私性攻击" style="rounded=0;whiteSpace=wrap;html=1;" parent="1" vertex="1">
          <mxGeometry x="500" y="-20" width="120" height="60" as="geometry" />
        </mxCell>
        <mxCell id="uTGLhY5-cAucIdM76ZCT-37" style="edgeStyle=orthogonalEdgeStyle;rounded=0;orthogonalLoop=1;jettySize=auto;html=1;exitX=1;exitY=0;exitDx=0;exitDy=0;entryX=0;entryY=0.5;entryDx=0;entryDy=0;" parent="1" source="uTGLhY5-cAucIdM76ZCT-6" target="uTGLhY5-cAucIdM76ZCT-18" edge="1">
          <mxGeometry relative="1" as="geometry">
            <Array as="points">
              <mxPoint x="620" y="80" />
            </Array>
          </mxGeometry>
        </mxCell>
        <mxCell id="uTGLhY5-cAucIdM76ZCT-38" style="edgeStyle=orthogonalEdgeStyle;rounded=0;orthogonalLoop=1;jettySize=auto;html=1;exitX=1;exitY=0.75;exitDx=0;exitDy=0;entryX=0;entryY=0.5;entryDx=0;entryDy=0;" parent="1" source="uTGLhY5-cAucIdM76ZCT-6" target="uTGLhY5-cAucIdM76ZCT-19" edge="1">
          <mxGeometry relative="1" as="geometry">
            <Array as="points">
              <mxPoint x="570" y="115" />
              <mxPoint x="570" y="140" />
            </Array>
          </mxGeometry>
        </mxCell>
        <mxCell id="uTGLhY5-cAucIdM76ZCT-6" value="安全性攻击" style="rounded=0;whiteSpace=wrap;html=1;" parent="1" vertex="1">
          <mxGeometry x="500" y="70" width="120" height="60" as="geometry" />
        </mxCell>
        <mxCell id="uTGLhY5-cAucIdM76ZCT-8" value="逃逸(对抗)攻击" style="rounded=0;whiteSpace=wrap;html=1;" parent="1" vertex="1">
          <mxGeometry x="500" y="160" width="120" height="60" as="geometry" />
        </mxCell>
        <mxCell id="uTGLhY5-cAucIdM76ZCT-40" style="edgeStyle=orthogonalEdgeStyle;rounded=0;orthogonalLoop=1;jettySize=auto;html=1;entryX=0;entryY=0.5;entryDx=0;entryDy=0;" parent="1" source="uTGLhY5-cAucIdM76ZCT-10" target="uTGLhY5-cAucIdM76ZCT-21" edge="1">
          <mxGeometry relative="1" as="geometry" />
        </mxCell>
        <mxCell id="uTGLhY5-cAucIdM76ZCT-10" value="统计异质性" style="rounded=0;whiteSpace=wrap;html=1;" parent="1" vertex="1">
          <mxGeometry x="500" y="240" width="120" height="60" as="geometry" />
        </mxCell>
        <mxCell id="uTGLhY5-cAucIdM76ZCT-39" style="edgeStyle=orthogonalEdgeStyle;rounded=0;orthogonalLoop=1;jettySize=auto;html=1;exitX=1;exitY=0.5;exitDx=0;exitDy=0;entryX=0;entryY=0.5;entryDx=0;entryDy=0;" parent="1" source="uTGLhY5-cAucIdM76ZCT-11" target="uTGLhY5-cAucIdM76ZCT-22" edge="1">
          <mxGeometry relative="1" as="geometry" />
        </mxCell>
        <mxCell id="uTGLhY5-cAucIdM76ZCT-11" value="多项式逼近" style="rounded=0;whiteSpace=wrap;html=1;" parent="1" vertex="1">
          <mxGeometry x="500" y="320" width="120" height="60" as="geometry" />
        </mxCell>
        <mxCell id="uTGLhY5-cAucIdM76ZCT-47" style="edgeStyle=orthogonalEdgeStyle;rounded=0;orthogonalLoop=1;jettySize=auto;html=1;exitX=0.5;exitY=0;exitDx=0;exitDy=0;entryX=0;entryY=0.5;entryDx=0;entryDy=0;" parent="1" source="uTGLhY5-cAucIdM76ZCT-13" target="uTGLhY5-cAucIdM76ZCT-41" edge="1">
          <mxGeometry relative="1" as="geometry">
            <Array as="points">
              <mxPoint x="560" y="430" />
            </Array>
          </mxGeometry>
        </mxCell>
        <mxCell id="uTGLhY5-cAucIdM76ZCT-48" style="edgeStyle=orthogonalEdgeStyle;rounded=0;orthogonalLoop=1;jettySize=auto;html=1;exitX=1;exitY=0.5;exitDx=0;exitDy=0;entryX=0;entryY=0.5;entryDx=0;entryDy=0;" parent="1" source="uTGLhY5-cAucIdM76ZCT-13" target="uTGLhY5-cAucIdM76ZCT-45" edge="1">
          <mxGeometry relative="1" as="geometry">
            <Array as="points">
              <mxPoint x="620" y="480" />
            </Array>
          </mxGeometry>
        </mxCell>
        <mxCell id="uTGLhY5-cAucIdM76ZCT-49" style="edgeStyle=orthogonalEdgeStyle;rounded=0;orthogonalLoop=1;jettySize=auto;html=1;entryX=0;entryY=0.5;entryDx=0;entryDy=0;" parent="1" source="uTGLhY5-cAucIdM76ZCT-13" target="uTGLhY5-cAucIdM76ZCT-46" edge="1">
          <mxGeometry relative="1" as="geometry">
            <Array as="points">
              <mxPoint x="560" y="530" />
            </Array>
          </mxGeometry>
        </mxCell>
        <mxCell id="uTGLhY5-cAucIdM76ZCT-13" value="拓扑复杂性" style="rounded=0;whiteSpace=wrap;html=1;" parent="1" vertex="1">
          <mxGeometry x="500" y="450" width="120" height="60" as="geometry" />
        </mxCell>
        <mxCell id="uTGLhY5-cAucIdM76ZCT-51" style="edgeStyle=orthogonalEdgeStyle;rounded=0;orthogonalLoop=1;jettySize=auto;html=1;entryX=0;entryY=0.5;entryDx=0;entryDy=0;" parent="1" source="uTGLhY5-cAucIdM76ZCT-14" target="uTGLhY5-cAucIdM76ZCT-23" edge="1">
          <mxGeometry relative="1" as="geometry">
            <Array as="points">
              <mxPoint x="560" y="600" />
            </Array>
          </mxGeometry>
        </mxCell>
        <mxCell id="uTGLhY5-cAucIdM76ZCT-53" style="edgeStyle=orthogonalEdgeStyle;rounded=0;orthogonalLoop=1;jettySize=auto;html=1;exitX=0.5;exitY=1;exitDx=0;exitDy=0;entryX=0;entryY=0.5;entryDx=0;entryDy=0;" parent="1" source="uTGLhY5-cAucIdM76ZCT-14" target="uTGLhY5-cAucIdM76ZCT-24" edge="1">
          <mxGeometry relative="1" as="geometry">
            <Array as="points">
              <mxPoint x="560" y="680" />
            </Array>
          </mxGeometry>
        </mxCell>
        <mxCell id="uTGLhY5-cAucIdM76ZCT-14" value="设备异质性" style="rounded=0;whiteSpace=wrap;html=1;" parent="1" vertex="1">
          <mxGeometry x="500" y="610" width="120" height="60" as="geometry" />
        </mxCell>
        <mxCell id="uTGLhY5-cAucIdM76ZCT-16" value="成员推断" style="rounded=0;whiteSpace=wrap;html=1;" parent="1" vertex="1">
          <mxGeometry x="710" y="-80" width="120" height="40" as="geometry" />
        </mxCell>
        <mxCell id="uTGLhY5-cAucIdM76ZCT-17" value="数据重构" style="rounded=0;whiteSpace=wrap;html=1;" parent="1" vertex="1">
          <mxGeometry x="710" y="-10" width="120" height="40" as="geometry" />
        </mxCell>
        <mxCell id="uTGLhY5-cAucIdM76ZCT-18" value="后门攻击" style="rounded=0;whiteSpace=wrap;html=1;" parent="1" vertex="1">
          <mxGeometry x="710" y="60" width="120" height="40" as="geometry" />
        </mxCell>
        <mxCell id="uTGLhY5-cAucIdM76ZCT-19" value="鲁棒性攻击" style="rounded=0;whiteSpace=wrap;html=1;" parent="1" vertex="1">
          <mxGeometry x="710" y="120" width="120" height="40" as="geometry" />
        </mxCell>
        <mxCell id="uTGLhY5-cAucIdM76ZCT-20" value="对抗样本" style="rounded=0;whiteSpace=wrap;html=1;" parent="1" vertex="1">
          <mxGeometry x="710" y="190" width="120" height="40" as="geometry" />
        </mxCell>
        <mxCell id="uTGLhY5-cAucIdM76ZCT-21" value="非独立同分布" style="rounded=0;whiteSpace=wrap;html=1;" parent="1" vertex="1">
          <mxGeometry x="710" y="250" width="120" height="40" as="geometry" />
        </mxCell>
        <mxCell id="uTGLhY5-cAucIdM76ZCT-22" value="加密运算" style="rounded=0;whiteSpace=wrap;html=1;" parent="1" vertex="1">
          <mxGeometry x="710" y="330" width="120" height="40" as="geometry" />
        </mxCell>
        <mxCell id="uTGLhY5-cAucIdM76ZCT-23" value="网络限制" style="rounded=0;whiteSpace=wrap;html=1;" parent="1" vertex="1">
          <mxGeometry x="710" y="580" width="120" height="40" as="geometry" />
        </mxCell>
        <mxCell id="uTGLhY5-cAucIdM76ZCT-24" value="算力限制" style="rounded=0;whiteSpace=wrap;html=1;" parent="1" vertex="1">
          <mxGeometry x="710" y="660" width="120" height="40" as="geometry" />
        </mxCell>
        <mxCell id="uTGLhY5-cAucIdM76ZCT-41" value="星状架构" style="rounded=0;whiteSpace=wrap;html=1;" parent="1" vertex="1">
          <mxGeometry x="710" y="410" width="120" height="40" as="geometry" />
        </mxCell>
        <mxCell id="uTGLhY5-cAucIdM76ZCT-45" value="层级架构" style="rounded=0;whiteSpace=wrap;html=1;" parent="1" vertex="1">
          <mxGeometry x="710" y="460" width="120" height="40" as="geometry" />
        </mxCell>
        <mxCell id="uTGLhY5-cAucIdM76ZCT-46" value="去中心架构" style="rounded=0;whiteSpace=wrap;html=1;" parent="1" vertex="1">
          <mxGeometry x="710" y="510" width="120" height="40" as="geometry" />
        </mxCell>
      </root>
    </mxGraphModel>
  </diagram>
</mxfile>
